<svg xmlns="http://www.w3.org/2000/svg" viewBox="0 0 126.01 138.21"><defs><style>.cls-1{fill:#a5b9ba;}.cls-2{font-size:41.21px;}.cls-2,.cls-3{fill:#231f20;font-family:Cochin;}.cls-3{font-size:38.62px;}</style></defs><title>Hotellogo_3</title><g id="Isolation_Mode" data-name="Isolation Mode"><path class="cls-1" d="M421,270.73c.17.7.29,1,.33,1.38.64,6.07.13,6.63-6.08,6.64-6,0-12,.07-17.95,0-2.27,0-3.34.45-3.37,3.08-.25,22.28-.66,44.55-1,66.83-.06,4.28,1.1,5.85,5.3,5.44A49.5,49.5,0,0,0,411.84,351a165.82,165.82,0,0,0,18.46-9.27c1.29-.71,1.76-2.89,2.61-4.4l-4.87-2c-.51-2.51,1-5,3.13-7s4.63-3.56,6.85-5.46c2.56-2.19,5-4.54,7.48-6.83,7.32,5.05,8.45,25.77,1.65,31.87-6-4.73-6.87-4.92-12.8.27-8.65,7.56-18.71,12.31-29.39,16.11-6.67,2.37-12.86,5.6-17,11.46-4.61-2.79-8.76-5.63-13.2-7.91s-9.71-3.68-14.07-6.33c-5.77-3.49-11.05-7.81-16.51-11.83-1.22-.9-2.21-2.11-3.44-3-4.35-3.13-5.7-2.88-8.58,1.4-7.79-3.69-8.94-24.32-1.49-32.77,6,4.74,12.15,9.3,17.91,14.35,2.78,2.44,2.16,3.73-.65,6.26-.87.78-1.48,2.94-1,3.89a11.67,11.67,0,0,0,4,4.63A68.69,68.69,0,0,0,376.08,354c4.3.71,6.86-1,6.95-5.28.54-23.31.85-46.63,1.24-70.43h-8.43c-5,0-10.09-.08-15.13,0-2.07.05-3.57-.31-3.34-2.75.21-2.21-.39-5.12,3.14-5.23,4.92-.15,9.85-.09,14.77-.1h9c.24-4.48,1.46-8.4-3.55-11.45-4.82-2.93-5.44-10.52-2.24-15.52A13.33,13.33,0,0,1,395,238.7c4.24,2,6.84,5.29,7.25,10A11.56,11.56,0,0,1,397,259.9c-2.79,1.9-4.1,6.15-2.52,9,.4.74,1.87,1.23,2.86,1.26,7.15.2,14.29.25,21.44.36C419.44,270.55,420.12,270.65,421,270.73Zm-32-15.17a6.23,6.23,0,0,0,6.45-6,6.43,6.43,0,0,0-5.95-6.19,6.3,6.3,0,0,0-6.6,5.85A6.2,6.2,0,0,0,389,255.56Z" transform="translate(-325.66 -237.51)"/></g><g id="Layer_1" data-name="Layer 1"><text class="cls-2" transform="translate(16.21 81.41) scale(0.7)">QUIET</text><text class="cls-3" transform="translate(2.07 107.56) scale(0.7)">HARBOR</text></g></svg>